<?xml version="1.0" encoding="UTF-8" standalone="no"?>
<svg width="108px" height="108px" viewBox="0 0 108 108" version="1.1" xmlns="http://www.w3.org/2000/svg" xmlns:xlink="http://www.w3.org/1999/xlink" xmlns:sketch="http://www.bohemiancoding.com/sketch/ns">
    <!-- Generator: Sketch 3.0.4 (8053) - http://www.bohemiancoding.com/sketch -->
    <title>contributeKnowledge</title>
    <desc>Created with Sketch.</desc>
    <defs></defs>
    <g id="Page-1" stroke="none" stroke-width="1" fill="none" fill-rule="evenodd" sketch:type="MSPage">
        <g id="Artboard-1" sketch:type="MSArtboardGroup" transform="translate(-431.000000, -1715.000000)">
            <g id="Group" sketch:type="MSLayerGroup" transform="translate(398.000000, 1659.000000)">
                <g id="contributeKnowledge" transform="translate(33.000000, 56.000000)" sketch:type="MSShapeGroup">
                    <circle id="Oval-19" fill="#F2EEE8" cx="54" cy="54" r="54"></circle>
                    <path d="M64.3613116,57.6811235 C68.9731216,54.5571142 72,49.3028791 72,43.3478261 C72,33.7668863 64.1649831,26 54.5,26 C44.8350169,26 37,33.7668863 37,43.3478261 C37,49.3013987 40.0253737,54.5545019 44.6352493,57.6787933 L44.6352493,65.3030125 C44.6352493,66.4083195 45.5340958,67.3043478 46.6352452,67.3043478 L62.3613158,67.3043478 C63.465883,67.3043478 64.3613116,66.4087986 64.3613116,65.3030125 L64.3613116,57.6811235 Z M63.3481216,73.0869565 L63.3481216,73.0869565 C63.913193,73.0869565 64.3712739,72.5369501 64.3712739,71.8478261 L64.3712739,71.8478261 C64.3712739,71.1634732 63.8117999,70.6086957 63.3481216,70.6086957 L63.3481216,70.6086957 L45.6134816,70.6086957 L45.6134816,70.6086957 C45.0484102,70.6086957 44.5903293,71.1587021 44.5903293,71.8478261 L44.5903293,71.8478261 C44.5903293,72.5321789 45.1498033,73.0869565 45.6134816,73.0869565 L45.6134816,73.0869565 L63.3481216,73.0869565 Z M63.3481216,78.0434783 L63.3481216,78.0434783 C63.913193,78.0434783 64.3712739,77.4934719 64.3712739,76.8043478 L64.3712739,76.8043478 C64.3712739,76.119995 63.8117999,75.5652174 63.3481216,75.5652174 L63.3481216,75.5652174 L45.6134816,75.5652174 L45.6134816,75.5652174 C45.0484102,75.5652174 44.5903293,76.1152238 44.5903293,76.8043478 L44.5903293,76.8043478 C44.5903293,77.4887007 45.1498033,78.0434783 45.6134816,78.0434783 L45.6134816,78.0434783 L63.3481216,78.0434783 Z M58.25,83 L58.2640381,83 C58.946641,83 59.5,82.4499936 59.5,81.7608696 L59.5,81.7608696 C59.5,81.0765167 58.9480932,80.5217391 58.2640381,80.5217391 L58.25,80.5217391 L51.5833333,80.5217391 L51.5692952,80.5217391 C50.8866923,80.5217391 50.3333333,81.0717455 50.3333333,81.7608696 L50.3333333,81.7608696 C50.3333333,82.4452224 50.8852402,83 51.5692952,83 L51.5833333,83 L58.25,83 Z" id="Oval-30" fill="#F6A623"></path>
                </g>
            </g>
        </g>
    </g>
</svg>